PathFileType	4	(X/Y/Z)	C:/Users/beibeiliu/ov580/test_trc\sequence.28_training_dense_right.trc
DataRate	CameraRate	NumFrames	NumMarkers	Units	OrigDataRate	OrigDataStartFrame	OrigNumFrames
120	120	8	19	mm	120	83	110
Frame#	Time	ThumbCMC			ThumbMCP			ThumbIP			ThumbTip			IndexMCP			IndexPIP			IndexTip			MiddleMCP			MiddlePIP			MiddleTip			RingMCP			RingPIP			RingTip			PinkyMCP			PinkyPIP			PinkyTip			BackHand1			BackHand2			BackHand3	
		X0	Y0	Z0	X1	Y1	Z1	X2	Y2	Z2	X3	Y3	Z3	X4	Y4	Z4	X5	Y5	Z5	X6	Y6	Z6	X7	Y7	Z7	X8	Y8	Z8	X9	Y9	Z9	X10	Y10	Z10	X11	Y11	Z11	X12	Y12	Z12	X13	Y13	Z13	X14	Y14	Z14	X15	Y15	Z15	X16	Y16	Z16	X17	Y17	Z17	X18	Y18	Z18	
82	0.683333	103.381	66.862	6.13667	91.0292	82.2749	-16.3704	79.0284	86.3742	-36.2849	69.13	92.4118	-52.9095	68.0281	54.0161	-45.6218	60.9131	70.4254	-58.2539	52.0968	90.302	-64.3083	51.3669	49.7886	-39.5947	43.8127	67.0093	-54.8591	32.5874	97.6721	-62.885	35.9024	51.5078	-28.1753	31.0353	73.2646	-41.6362	28.3945	93.0402	-44.4066	26.3823	50.6687	-8.70504	20.3435	72.146	-20.4818	30.0971	91.2315	-26.2411	58.1535	31.0822	13.1978	71.7635	32.5047	36.0593	86.8485	35.4185	12.0325	
83	0.691667	106.423	56.2804	10.24	99.2491	65.6404	-21.7196	91.0414	64.9603	-40.8664	81.1512	64.6208	-60.7539	81.64	27.7493	-41.3788	76.3672	42.6419	-63.8226	70.0976	61.0375	-78.2291	61.0939	24.9592	-37.2093	54.3911	37.9715	-58.611	47.632	59.836	-75.9156	49.2297	29.7526	-27.0634	40.9874	44.0563	-45.8637	42.5917	65.7641	-61.6244	33.8003	36.4782	-15.77	32.8516	52.0622	-32.7104	40.3901	68.8342	-40.6026	62.3109	23.1446	20.1512	71.7216	33.8932	45.0916	92.1065	25.9688	21.0132	
84	0.7	112.739	46.867	11.306	104.473	46.7367	-19.2797	99.0245	41.6623	-43.201	89.6174	37.7558	-58.0871	97.6538	6.06657	-36.7665	86.7882	15.167	-58.1041	81.0565	29.8526	-76.7587	75.6225	3.56192	-30.0815	66.6213	9.32263	-58.3611	57.1077	24.765	-79.0122	59.8675	7.542	-25.959	48.9438	16.6211	-45.8274	54.0133	31.7102	-64.2146	44.501	16.7737	-8.46717	38.9096	25.9877	-31.3267	49.7444	40.7505	-45.4177	74.3653	13.27	22.4325	77.8376	27.8241	45.5762	97.4407	19.1571	26.4783	
85	0.708333	119.607	37.8042	12.0171	114.08	35.3897	-18.3951	106.267	24.0818	-37.7656	101.863	18.5578	-57.1397	108.841	-8.78031	-25.7729	101.614	-6.20779	-51.2475	94.1769	6.6883	-73.2418	89.6002	-14.5252	-27.2631	80.5115	-13.9698	-48.194	73.3205	-2.69265	-77.0372	67.8825	-8.93686	-19.1106	66.6063	-6.88797	-41.0139	61.6138	5.08619	-63.3116	56.5182	-0.153379	-9.30538	52.8948	3.10423	-29.2422	61.8397	18.6598	-47.7973	83.2922	7.88448	29.3155	84.9776	26.6505	49.1422	106.288	16.0162	34.7281	
86	0.716667	130.929	34.8996	12.4145	127.014	31.8628	-17.9944	123.314	16.0686	-39.3804	118.095	9.33853	-55.3374	127.672	-18.0088	-23.5003	121.896	-17.0405	-44.654	111.074	-6.19855	-71.0198	108.178	-25.2009	-20.3189	102.773	-28.0519	-46.9473	97.3099	-19.6792	-74.6557	88.1826	-22.7127	-18.0669	88.3242	-22.2402	-41.911	87.4019	-14.0263	-64.2442	75.5794	-13.6308	-6.91394	75.2698	-15.0267	-29.6012	77.7567	-6.05331	-48.1397	95.5722	-0.581002	28.7735	94.9183	17.2275	50.5307	120.215	8.89808	35.0761	
87	0.725	138.417	40.6668	15.3197	138.572	30.562	-17.8165	139.2	19.0322	-39.3997	136.566	6.95328	-56.1662	150.333	-14.5714	-20.5072	147.462	-15.3852	-43.1909	142.963	-8.01374	-67.9367	136.621	-25.2205	-22.1032	135.721	-27.4206	-45.7661	126.449	-26.0248	-71.3794	117.692	-26.8073	-17.7477	114.655	-28.5612	-41.9461	114.831	-22.6441	-62.8719	98.7111	-22.9491	-8.90861	101.633	-23.3846	-29.8145	100.504	-16.8262	-52.1011	112.302	-4.82146	31.0844	107.834	12.8399	46.2439	133.021	13.9103	36.4786	
88	0.733333	140.737	48.979	17.2313	144.535	44.9477	-17.4719	147.739	32.0925	-35.8576	149.021	19.1692	-53.7516	170.522	2.4158	-20.3196	167.815	-0.296371	-47.6016	161.713	7.33218	-71.2958	159.53	-14.5858	-23.7154	160.309	-15.7867	-46.5277	155.778	-13.071	-75.135	147.059	-18.2335	-21.7196	145.55	-20.2712	-46.1385	140.216	-17.6644	-69.0107	128.619	-21.7126	-10.5434	129.128	-24.0056	-33.9694	129.986	-18.3534	-56.0925	135.28	-3.3889	24.8421	124.528	9.95055	44.6027	147.906	19.5078	35.4582	
89	0.741667	138.41	55.1079	15.6235	137.148	55.9547	-15.0632	145.495	49.9747	-38.3306	147.874	41.6169	-53.6757	178.766	31.9126	-24.0811	177.784	32.8721	-47.3208	167.743	28.8325	-73.3592	174.367	11.4997	-26.2747	175.29	12.9132	-53.7229	166.96	14.5411	-80.2595	165.375	0.374392	-25.9991	162.22	-2.14701	-47.3447	159.233	3.87348	-69.1859	149.96	-13.6867	-16.221	152.486	-10.7796	-34.4315	151.337	-8.87411	-54.8163	148.801	4.21896	25.1642	135.424	9.79901	43.1659	156.938	32.6809	32.9912	
